<?xml version="1.0" encoding="iso-8859-1"?>
<svg xmlns="http://www.w3.org/2000/svg" xmlns:xlink="http://www.w3.org/1999/xlink" version="1.1" id="Layer_1" x="0px" y="0px" viewBox="0 0 511.999 511.999" style="enable-background:new 0 0 511.999 511.999;" xml:space="preserve">
<path style="fill:#000000;" d="M501.601,75.672L427.516,1.573c-2.096-2.097-5.525-2.097-7.621,0L1.622,419.926  c-2.096,2.096-2.096,5.526,0,7.624l74.085,74.1L501.601,75.672z"/>
<path style="opacity:0;enable-background:new    ;" d="M15.778,413.394c-2.096-2.097-2.096-5.527,0-7.624L1.622,419.926  c-2.096,2.096-2.096,5.526,0,7.624l74.085,74.1l14.153-14.156L15.778,413.394z"/>
<path style="fill:#FFFFFF;" d="M451.992,61.151c5.496,5.497,5.496,14.41,0,19.907c-5.496,5.496-14.407,5.496-19.901,0  c-5.498-5.497-5.498-14.41,0-19.907C437.584,55.653,446.496,55.653,451.992,61.151z"/>
<path style="fill:#ffffff;" d="M404.235,43.986c1.531,1.531,3.536,2.296,5.542,2.296c2.005,0,4.011-0.765,5.541-2.295  c3.062-3.061,3.062-8.023,0.001-11.082l-13.376-13.379l-11.081,11.083L404.235,43.986z"/>
<path style="fill:#ffffff;" d="M510.377,92.072c2.096-2.097,2.096-5.528,0-7.624l-13.866-13.867L70.618,496.56l13.865,13.867  c2.096,2.097,5.525,2.097,7.621,0L510.377,92.072z"/>
<g>
	<path style="fill:#ffffff;" d="M377.716,70.512c1.531,1.531,3.536,2.296,5.542,2.296c2.005,0,4.011-0.765,5.541-2.295   c3.062-3.061,3.062-8.023,0.001-11.082l-13.376-13.378l-11.081,11.084L377.716,70.512z"/>
	<path style="fill:#ffffff;" d="M271.617,176.601c1.53,1.531,3.536,2.296,5.542,2.296c2.005,0,4.01-0.765,5.541-2.294   c3.06-3.061,3.062-8.023,0.001-11.082l-13.36-13.364l-11.081,11.082L271.617,176.601z"/>
	<path style="fill:#ffffff;" d="M260.71,218.744c1.531,1.531,3.536,2.296,5.542,2.296c2.005,0,4.011-0.765,5.541-2.295   c3.062-3.061,3.062-8.023,0.001-11.082l-28.973-28.98l-11.081,11.083L260.71,218.744z"/>
	<path style="fill:#ffffff;" d="M218.575,229.653c1.531,1.531,3.537,2.296,5.543,2.296c2.004,0,4.01-0.764,5.541-2.295   c3.061-3.059,3.062-8.022,0-11.082l-13.36-13.363l-11.082,11.083L218.575,229.653z"/>
	<path style="fill:#ffffff;" d="M192.055,256.179c1.531,1.531,3.537,2.296,5.543,2.296c2.005,0,4.01-0.765,5.541-2.295   c3.062-3.06,3.062-8.023,0.002-11.082l-13.361-13.365l-11.082,11.084L192.055,256.179z"/>
	<path style="fill:#ffffff;" d="M165.534,282.706c1.531,1.531,3.536,2.296,5.542,2.296c2.005,0,4.011-0.765,5.541-2.295   c3.061-3.06,3.062-8.023,0.001-11.083l-13.361-13.364l-11.081,11.083L165.534,282.706z"/>
	<path style="fill:#ffffff;" d="M154.628,324.848c1.53,1.531,3.536,2.296,5.542,2.296c2.005,0,4.01-0.765,5.541-2.295   c3.062-3.06,3.062-8.022,0.001-11.082l-28.975-28.98l-11.081,11.083L154.628,324.848z"/>
	<path style="fill:#ffffff;" d="M112.493,335.758c1.531,1.531,3.537,2.296,5.542,2.296c2.005,0,4.011-0.764,5.541-2.295   c3.061-3.06,3.062-8.022,0.001-11.082l-13.362-13.364l-11.081,11.084L112.493,335.758z"/>
	<path style="fill:#ffffff;" d="M85.987,362.299c1.531,1.531,3.535,2.296,5.541,2.296c2.006,0,4.011-0.765,5.541-2.295   c3.062-3.06,3.062-8.023,0.002-11.082l-13.378-13.38l-11.082,11.084L85.987,362.299z"/>
	<path style="fill:#ffffff;" d="M59.466,388.825c1.53,1.531,3.536,2.296,5.542,2.296c2.005,0,4.01-0.765,5.541-2.295   c3.062-3.06,3.062-8.023,0.001-11.082l-13.377-13.38l-11.081,11.083L59.466,388.825z"/>
	<path style="fill:#ffffff;" d="M49.324,431.733c1.53,1.531,3.535,2.296,5.541,2.296c2.006,0,4.011-0.765,5.541-2.295   c3.062-3.06,3.062-8.023,0.002-11.083l-29.755-29.761l-11.081,11.083L49.324,431.733z"/>
	<path style="fill:#ffffff;" d="M298.139,150.076c1.531,1.531,3.536,2.296,5.542,2.296c2.005,0,4.011-0.765,5.541-2.295   c3.062-3.061,3.062-8.023,0.001-11.082l-13.362-13.364l-11.081,11.083L298.139,150.076z"/>
	<path style="fill:#ffffff;" d="M324.671,123.563c1.531,1.531,3.537,2.296,5.543,2.296c2.005,0,4.01-0.764,5.541-2.294   c3.06-3.061,3.062-8.023,0.002-11.082l-13.375-13.38l-11.081,11.084L324.671,123.563z"/>
	<path style="fill:#ffffff;" d="M367.574,113.42c1.531,1.531,3.536,2.296,5.542,2.296c2.005,0,4.011-0.765,5.541-2.295   c3.062-3.061,3.062-8.023,0.001-11.082l-29.755-29.76l-11.081,11.083L367.574,113.42z"/>
</g>
<g>
</g>
<g>
</g>
<g>
</g>
<g>
</g>
<g>
</g>
<g>
</g>
<g>
</g>
<g>
</g>
<g>
</g>
<g>
</g>
<g>
</g>
<g>
</g>
<g>
</g>
<g>
</g>
<g>
</g>
</svg>
